<?xml version="1.0" standalone="no"?><!DOCTYPE svg PUBLIC "-//W3C//DTD SVG 1.1//EN" "http://www.w3.org/Graphics/SVG/1.1/DTD/svg11.dtd"><svg t="1634191502897" class="icon" viewBox="0 0 1024 1024" version="1.1" xmlns="http://www.w3.org/2000/svg" p-id="7691" xmlns:xlink="http://www.w3.org/1999/xlink" width="200" height="200"><defs><style type="text/css"></style></defs><path d="M621.1 730.5c55.7-12 48.1-78.5 46.4-93-2.7-22.4-29.1-61.6-64.9-58.5-43.2 3.9-51 63.9-51.6 68.8 0 0.2-0.1 0.4-0.1 0.7-5.9 30.2 14.8 94 70.2 82z m59.1 115.7c-1.6 4.7-5.3 16.6-2.1 27 5.6 21.1 22.7 24 26 24.4 0.3 0 0.6 0.1 1 0.1h19.4c5.2 0 9.4-4.2 9.4-9.4v-52.6c0-5.2-4.2-9.4-9.4-9.4H704c-1 0-2 0.1-2.9 0.5-13.1 4.6-19.4 14.9-20.9 19.4zM724.4 619c30.8 0 55.6-35.4 55.6-79.2 0-43.7-24.8-79.1-55.6-79.1-30.7 0-55.6 35.4-55.6 79.1 0 43.8 24.9 79.2 55.6 79.2z m132.4 5.2c41.1 5.3 67.5-38.5 72.8-71.8 5.4-33.2-21.1-71.8-50.2-78.4-29.1-6.7-65.5 40-68.9 70.5-4 37.2 5.3 74.4 46.3 79.7z m100.7 195.4s-63.6-49.2-100.7-102.3c-50.3-78.4-121.8-46.5-145.7-6.6-23.8 39.9-60.9 65.1-66.1 71.8-5.3 6.6-76.8 45.2-60.9 115.6 15.2 67.2 66.6 69 71.2 69.1h0.7c4.3 0.4 43.4 3.4 88.3-6.6 47.7-10.5 88.7 2.7 88.7 2.7s111.3 37.3 141.8-34.5c30.3-72-17.3-109.2-17.3-109.2zM757.7 926.4h-62c-0.7 0-1.3-0.1-2-0.2-30.5-6.5-42.7-27.4-44.3-31-1.5-3.7-10.2-20.5-5.9-49.2l0.3-1.5c12.6-39.6 45.9-45.4 51.1-46 0.4-0.1 0.8-0.1 1.2-0.1h28.6c5.2 0 9.4-4.2 9.4-9.4v-28.5c0-5.2 4.3-9.4 9.5-9.4l14.1 0.2c5.1 0.1 9.2 4.2 9.2 9.4V917c0.2 5.2-4 9.4-9.2 9.4z m130.3-0.5h-68.2c-0.8 0-1.6-0.1-2.4-0.3-29.3-8.1-32.6-31-32.6-31.1v-82.7c0-5.1 4.1-9.3 9.2-9.4l15.1-0.3c5.2-0.1 9.5 4.1 9.5 9.4v71.8c0 1.3 0.2 2.5 0.8 3.7 2.4 5.3 8.4 7.3 11 8 0.7 0.2 1.5 0.3 2.2 0.3h24c5.2 0 9.4-4.2 9.4-9.4V812c0-5.2 4.2-9.4 9.4-9.4h17.2c5.2 0 9.4 4.2 9.4 9.4v100.2c-0.2 7.5-6.3 13.7-14 13.7zM1019.7 680c0-15.9-13.2-63.8-62.2-63.8s-55.7 45.2-55.7 77.2c0 30.5 2.6 73.1 63.5 71.7 61.1-1.4 54.4-69.1 54.4-85.1zM451 783.7c5 11 12.7 19.7 23.2 26 10.5 6.3 21.8 9.5 33.7 9.5 12 0 23.2-3.2 33.7-9.5 10.5-6.3 18.4-15 23.8-26 2.1-4.5 0.3-10-4.1-12.3-12.3-6.3-23.4-15-32.8-26.4-26.5-32.5-33.3-75.2-28.3-104.3 4.8-40.1 30.3-106.6 97.9-112.7 2.8-0.2 5.6-0.4 8.4-0.4h2.3c5.1 0.1 9.4-3.6 10-8.6 7.9-62.8 51.4-109.5 105.5-109.5 3.1 0 6.1 0.4 9.1 0.8 4.1 0.7 8.1-1.5 9.9-5.2l4-8.5c11-23.3 16.5-53.1 16.5-89.5 0-70.7-25-131-75-181s-110.4-75-181-75-131 25-181 75-75 110.3-75 181c0 36.4 5.5 66.2 16.5 89.5L451 783.7z m-33.6-567.1c25-25 55.1-37.5 90.5-37.5 35.3 0 65.5 12.5 90.5 37.5s37.5 55.1 37.5 90.5-12.5 65.5-37.5 90.5-55.2 37.5-90.5 37.5-65.5-12.5-90.5-37.5-37.5-55.1-37.5-90.5c0-35.3 12.5-65.4 37.5-90.5z m128.8 756.1H13.4c-7.5 0-11.9-8.3-7.8-14.5l186.2-279.3c5.5-8.3 14.9-13.3 24.9-13.3h112c6 0 11.6 3.5 14.1 9l9.4 19.9c4.9 10.4-2.7 22.3-14.1 22.3h-94c-10 0-19.3 5-24.9 13.3L101.3 907c-4.1 6.2 0.3 14.5 7.8 14.5h422c4 0 7.5 2.5 8.8 6.2 4 11.5 8.8 21.7 14.3 30.7 3.8 6.3-0.7 14.3-8 14.3z" p-id="7692"></path></svg>