<?xml version="1.0" standalone="no"?><!DOCTYPE svg PUBLIC "-//W3C//DTD SVG 1.1//EN" "http://www.w3.org/Graphics/SVG/1.1/DTD/svg11.dtd"><svg t="1634138385609" class="icon" viewBox="0 0 1024 1024" version="1.1" xmlns="http://www.w3.org/2000/svg" p-id="3574" xmlns:xlink="http://www.w3.org/1999/xlink" width="200" height="200"><defs><style type="text/css"></style></defs><path d="M853.333333 256c0-92.501333-156.288-170.666667-341.333333-170.666667S170.666667 163.498667 170.666667 256v85.333333c0 92.501333 156.288 170.666667 341.333333 170.666667s341.333333-78.165333 341.333333-170.666667V256z m-341.333333 554.666667c-185.045333 0-341.333333-78.165333-341.333333-170.666667v128c0 92.501333 156.288 170.666667 341.333333 170.666667s341.333333-78.165333 341.333333-170.666667v-128c0 92.501333-156.288 170.666667-341.333333 170.666667z" p-id="3575"></path><path d="M853.333333 426.666667c0 92.501333-156.288 170.666667-341.333333 170.666666s-341.333333-78.165333-341.333333-170.666666v128c0 92.501333 156.288 170.666667 341.333333 170.666666s341.333333-78.165333 341.333333-170.666666v-128z" p-id="3576"></path></svg>