<?xml version="1.0" standalone="no"?><!DOCTYPE svg PUBLIC "-//W3C//DTD SVG 1.1//EN" "http://www.w3.org/Graphics/SVG/1.1/DTD/svg11.dtd"><svg t="1634190740453" class="icon" viewBox="0 0 1024 1024" version="1.1" xmlns="http://www.w3.org/2000/svg" p-id="7299" xmlns:xlink="http://www.w3.org/1999/xlink" width="200" height="200"><defs><style type="text/css"></style></defs><path d="M235.2 876.8c-58.4 0-105.6-47.2-105.6-105.6 0-58.4 47.2-105.6 105.6-105.6 58.4 0 105.6 47.2 105.6 105.6 0 58.4-47.2 105.6-105.6 105.6z m0-179.2c-40.8 0-73.6 32.8-73.6 73.6s32.8 73.6 73.6 73.6 73.6-32.8 73.6-73.6-32.8-73.6-73.6-73.6z" p-id="7300"></path><path d="M235.2 804.8c-18.4 0-33.6-15.2-33.6-33.6 0-18.4 15.2-33.6 33.6-33.6s33.6 15.2 33.6 33.6c0 18.4-15.2 33.6-33.6 33.6z m0-51.2c-9.6 0-17.6 8-17.6 17.6 0 9.6 8 17.6 17.6 17.6s17.6-8 17.6-17.6c0-9.6-8-17.6-17.6-17.6zM813.6 876.8c-58.4 0-105.6-47.2-105.6-105.6 0-58.4 47.2-105.6 105.6-105.6 58.4 0 105.6 47.2 105.6 105.6 0 58.4-47.2 105.6-105.6 105.6z m0-179.2c-40.8 0-73.6 32.8-73.6 73.6s32.8 73.6 73.6 73.6 73.6-32.8 73.6-73.6-32.8-73.6-73.6-73.6z" p-id="7301"></path><path d="M813.6 804.8c-18.4 0-33.6-15.2-33.6-33.6 0-18.4 15.2-33.6 33.6-33.6 18.4 0 33.6 15.2 33.6 33.6 0 18.4-14.4 33.6-33.6 33.6z m0-51.2c-9.6 0-17.6 8-17.6 17.6 0 9.6 8 17.6 17.6 17.6 9.6 0 17.6-8 17.6-17.6 0-9.6-7.2-17.6-17.6-17.6z" p-id="7302"></path><path d="M970.4 787.2h-67.2c-8.8 0-16-7.2-16-16 0-40.8-32.8-73.6-73.6-73.6s-73.6 32.8-73.6 73.6c0 8.8-7.2 16-16 16H324.8c-8.8 0-16-7.2-16-16 0-40.8-32.8-73.6-73.6-73.6s-73.6 32.8-73.6 73.6c0 8.8-7.2 16-16 16H59.2c-30.4 0-55.2-24.8-55.2-55.2V632c0-35.2 26.4-65.6 60.8-70.4 32-4.8 62.4-21.6 88-48.8 8.8-9.6 19.2-18.4 31.2-26.4 36.8-25.6 82.4-38.4 132-38.4h252.8c49.6 0 94.4 13.6 131.2 38.4 22.4 15.2 39.2 32.8 49.6 52 8 13.6 20 22.4 32.8 24l135.2 14.4h0.8c57.6 8 100.8 56.8 100.8 115.2v45.6c0.8 27.2-21.6 49.6-48.8 49.6z m-52-32h52c9.6 0 17.6-8 17.6-17.6v-45.6c0-42.4-31.2-77.6-72.8-83.2l-135.2-14.4c-24-3.2-44.8-17.6-57.6-40.8-8-14.4-21.6-28-40-40.8-31.2-21.6-70.4-32.8-113.6-32.8H316c-43.2 0-82.4 11.2-113.6 32.8-10.4 7.2-19.2 14.4-26.4 22.4-30.4 32.8-67.2 52.8-107.2 58.4-19.2 2.4-33.6 19.2-33.6 38.4v99.2c0 12.8 10.4 23.2 23.2 23.2h71.2c8-50.4 52-89.6 104-89.6s96.8 39.2 104 89.6h369.6c8-50.4 52-89.6 104-89.6 55.2 0.8 99.2 40 107.2 90.4zM976 457.6c-8.8 0-16-7.2-16-16 0-144.8-117.6-262.4-262.4-262.4-8.8 0-16-7.2-16-16s7.2-16 16-16c162.4 0 294.4 132 294.4 294.4 0 8.8-7.2 16-16 16z" p-id="7303"></path><path d="M876.8 457.6c-8.8 0-16-7.2-16-16 0-90.4-73.6-163.2-163.2-163.2-8.8 0-16-7.2-16-16s7.2-16 16-16c108 0 195.2 88 195.2 195.2 0 8.8-7.2 16-16 16zM777.6 457.6c-8.8 0-16-7.2-16-16 0-35.2-28.8-64-64-64-8.8 0-16-7.2-16-16s7.2-16 16-16c52.8 0 96 43.2 96 96 0 8.8-7.2 16-16 16z" p-id="7304"></path><path d="M648.8 604H235.2c-4.8 0-8-3.2-8-8s3.2-8 8-8h413.6c4.8 0 8 3.2 8 8 0 4-4 8-8 8z" p-id="7305"></path><path d="M493.6 604c-4.8 0-8-3.2-8-8V515.2c0-4.8 3.2-8 8-8s8 3.2 8 8v80.8c0 4-3.2 8-8 8z" p-id="7306"></path><path d="M339.2 604c-4.8 0-8-3.2-8-8V515.2c0-4.8 3.2-8 8-8s8 3.2 8 8v80.8c0 4-3.2 8-8 8z" p-id="7307"></path></svg>