<?xml version="1.0" standalone="no"?><!DOCTYPE svg PUBLIC "-//W3C//DTD SVG 1.1//EN" "http://www.w3.org/Graphics/SVG/1.1/DTD/svg11.dtd"><svg t="1634190595945" class="icon" viewBox="0 0 1024 1024" version="1.1" xmlns="http://www.w3.org/2000/svg" p-id="6361" xmlns:xlink="http://www.w3.org/1999/xlink" width="200" height="200"><defs><style type="text/css"></style></defs><path d="M829.6 715.2H194.4c-20.8 0-40.8-8.8-55.2-24.8-13.6-16-20-36.8-17.6-57.6l75.2-564.8C201.6 32 232.8 4.8 269.6 4.8h485.6c36.8 0 68 27.2 72.8 63.2l75.2 564.8c2.4 20.8-4 41.6-17.6 57.6-14.4 16-34.4 24.8-56 24.8zM268.8 36c-20.8 0-38.4 15.2-40.8 36l-75.2 564.8c-1.6 12 2.4 23.2 9.6 32.8 8 8.8 19.2 14.4 31.2 14.4h636c12 0 23.2-4.8 31.2-14.4 8-8.8 11.2-20.8 9.6-32.8L796 72c-2.4-20-20-36-40.8-36H268.8z" p-id="6362"></path><path d="M289.6 646.4c-38.4 0-70.4-32-70.4-71.2s31.2-71.2 70.4-71.2c38.4 0 70.4 32 70.4 71.2s-31.2 71.2-70.4 71.2z m0-126.4c-29.6 0-54.4 24.8-54.4 55.2 0 30.4 24 55.2 54.4 55.2 29.6 0 54.4-24.8 54.4-55.2 0-30.4-24-55.2-54.4-55.2zM734.4 646.4c-38.4 0-70.4-32-70.4-71.2s31.2-71.2 70.4-71.2c38.4 0 70.4 32 70.4 71.2s-32 71.2-70.4 71.2z m0-126.4C704 520 680 544.8 680 575.2c0 30.4 24 55.2 54.4 55.2 29.6 0 54.4-24.8 54.4-55.2-0.8-30.4-24.8-55.2-54.4-55.2zM456.8 361.6H294.4c-4.8 0-8-3.2-8-8V180.8c0-4.8 3.2-8 8-8h162.4c4.8 0 8 3.2 8 8v172.8c0 4.8-3.2 8-8 8z m-154.4-16h146.4V188.8H302.4v156.8zM729.6 361.6H567.2c-4.8 0-8-3.2-8-8V180.8c0-4.8 3.2-8 8-8h162.4c4.8 0 8 3.2 8 8v172.8c0 4.8-3.2 8-8 8z m-154.4-16h146.4V188.8H575.2v156.8zM623.2 103.2H400.8c-4.8 0-8-3.2-8-8s3.2-8 8-8H624c4.8 0 8 3.2 8 8-0.8 4.8-4 8-8.8 8zM586.4 583.2H437.6c-4.8 0-8-3.2-8-8s3.2-8 8-8h148c4.8 0 8 3.2 8 8 0.8 4-3.2 8-7.2 8zM815.2 844.8H208.8c-2.4 0-4.8-1.6-6.4-3.2-1.6-2.4-1.6-4.8-0.8-7.2L253.6 696c0.8-3.2 4-4.8 7.2-4.8h502.4c3.2 0 6.4 2.4 7.2 4.8l52 137.6c0.8 2.4 0.8 5.6-0.8 7.2-1.6 3.2-4 4-6.4 4z m-595.2-16h583.2l-46.4-121.6H266.4l-46.4 121.6z" p-id="6363"></path><path d="M895.2 1020H128.8c-5.6 0-10.4-3.2-13.6-7.2-3.2-4.8-3.2-10.4-0.8-15.2l80-167.2c2.4-5.6 8-8.8 14.4-8.8h606.4c6.4 0 12 3.2 14.4 8.8l80 167.2c2.4 4.8 2.4 10.4-0.8 15.2-3.2 4-8 7.2-13.6 7.2z m-740.8-32h715.2l-64.8-135.2H219.2l-64.8 135.2z" p-id="6364"></path></svg>