<?xml version="1.0" standalone="no"?><!DOCTYPE svg PUBLIC "-//W3C//DTD SVG 1.1//EN" "http://www.w3.org/Graphics/SVG/1.1/DTD/svg11.dtd"><svg t="1634138245596" class="icon" viewBox="0 0 1024 1024" version="1.1" xmlns="http://www.w3.org/2000/svg" p-id="2043" xmlns:xlink="http://www.w3.org/1999/xlink" width="200" height="200"><defs><style type="text/css"></style></defs><path d="M512 42.666667C314.197333 42.666667 101.333333 102.314667 101.333333 233.344l0 557.312C101.333333 921.642667 314.197333 981.333333 512 981.333333c197.802667 0 410.666667-59.690667 410.666667-190.677333L922.666667 233.344C922.666667 102.314667 709.76 42.666667 512 42.666667zM864 790.656c0 72.874667-157.568 132.010667-352 132.010667-194.389333 0-352-59.136-352-132.010667l0-109.610667c60.629333 62.506667 206.762667 94.976 352 94.976 145.194667 0 291.370667-32.469333 352-94.976L864 790.656zM864 614.656l-0.128 0c0 0.256 0.128 0.682667 0.128 0.896 0 72.405333-157.568 131.072-352 131.072-194.389333 0-352-58.666667-352-131.072 0-0.256 0.128-0.682667 0.128-0.896L160 614.656l0-109.610667c60.629333 62.421333 206.762667 94.933333 352 94.933333 145.194667 0 291.370667-32.512 352-94.933333L864 614.656zM864 438.656l-0.128 0 0.128 0.896c0 72.405333-157.568 131.072-352 131.072-194.389333 0-352-58.666667-352-131.072l0.128-0.896L160 438.656 160 337.877333C236.885333 396.458667 377.770667 424.021333 512 424.021333c134.229333 0 275.114667-27.562667 352-86.101333L864 438.656zM512 365.312c-194.389333 0-352-59.136-352-132.010667 0-72.917333 157.610667-132.010667 352-132.010667 194.432 0 352 59.050667 352 132.010667C864 306.218667 706.432 365.312 512 365.312zM776.021333 776.021333c16.256 0 29.354667 13.098667 29.354667 29.354667s-13.098667 29.354667-29.354667 29.354667S746.666667 821.589333 746.666667 805.333333 759.765333 776.021333 776.021333 776.021333zM776.021333 599.978667c16.256 0 29.354667 13.098667 29.354667 29.354667s-13.098667 29.354667-29.354667 29.354667S746.666667 645.589333 746.666667 629.333333 759.765333 599.978667 776.021333 599.978667zM776.021333 424.021333c16.256 0 29.354667 13.098667 29.354667 29.354667s-13.098667 29.354667-29.354667 29.354667S746.666667 469.546667 746.666667 453.333333 759.765333 424.021333 776.021333 424.021333z" p-id="2044"></path></svg>