<?xml version="1.0" standalone="no"?><!DOCTYPE svg PUBLIC "-//W3C//DTD SVG 1.1//EN" "http://www.w3.org/Graphics/SVG/1.1/DTD/svg11.dtd"><svg t="1634139416940" class="icon" viewBox="0 0 1024 1024" version="1.1" xmlns="http://www.w3.org/2000/svg" p-id="6827" xmlns:xlink="http://www.w3.org/1999/xlink" width="200" height="200"><defs><style type="text/css"></style></defs><path d="M973.368889 299.804444a74.24 74.24 0 0 0-0.113778-106.097777L827.676444 50.460444a76.913778 76.913778 0 0 0-107.633777-0.113777L571.733333 196.266667l252.984889 249.742222 148.593778-146.204445zM127.317333 633.856a133.688889 133.688889 0 0 0-33.564444 54.499556L30.890667 914.147556c-12.515556 39.310222 25.088 76.401778 65.024 64.056888l229.262222-61.838222c20.821333-6.485333 39.822222-17.749333 55.296-32.995555l57.059555-56.149334-252.928-249.856-57.344 56.547556z m180.337778-567.011556a84.081778 84.081778 0 0 0-117.589333 0L52.792889 202.069333a81.066667 81.066667 0 0 0 0 115.882667l65.024 64L238.364444 263.111111a41.756444 41.756444 0 0 1 58.595556 0 40.618667 40.618667 0 0 1 0 57.856L176.355556 439.751111l58.766222 57.799111L306.631111 426.894222a41.756444 41.756444 0 0 1 58.595556 0 40.561778 40.561778 0 0 1 0 57.799111L293.717333 555.406222l58.595556 57.742222L472.746667 494.364444a41.756444 41.756444 0 0 1 58.595555 0 40.561778 40.561778 0 0 1 0 57.799112l-120.32 118.727111 58.709334 57.856 0.568888-0.568889 70.997334-70.087111a41.756444 41.756444 0 0 1 58.595555 0 40.561778 40.561778 0 0 1 0 57.856l-70.997333 70.030222-0.568889 0.455111 58.595556 57.742222 120.32-118.670222a41.756444 41.756444 0 0 1 58.595555 0 40.561778 40.561778 0 0 1 0 57.856l-120.32 118.613333 70.542222 69.518223a84.081778 84.081778 0 0 0 117.703112 0l137.216-135.168a81.066667 81.066667 0 0 0 0-115.882667L307.655111 66.901333z" p-id="6828"></path></svg>