<?xml version="1.0" standalone="no"?><!DOCTYPE svg PUBLIC "-//W3C//DTD SVG 1.1//EN" "http://www.w3.org/Graphics/SVG/1.1/DTD/svg11.dtd"><svg t="1634191238465" class="icon" viewBox="0 0 1024 1024" version="1.1" xmlns="http://www.w3.org/2000/svg" p-id="21404" xmlns:xlink="http://www.w3.org/1999/xlink" width="200" height="200"><defs><style type="text/css"></style></defs><path d="M864 315.967V512c0 17.673-14.327 32-32 32H635.967c-14.209 55.207-64.325 96-123.967 96-59.643 0-109.758-40.793-123.967-96H224v164.033c55.207 14.209 96 64.324 96 123.967 0 70.692-57.308 128-128 128S64 902.692 64 832c0-59.643 40.793-109.758 96-123.967V512c0-17.673 14.327-32 32-32h196.033c14.209-55.207 64.324-96 123.967-96s109.758 40.793 123.967 96H800V315.967c-55.207-14.209-96-64.324-96-123.967 0-70.692 57.308-128 128-128s128 57.308 128 128c0 59.643-40.793 109.758-96 123.967zM128 832c0 35.346 28.654 64 64 64s64-28.654 64-64-28.654-64-64-64-64 28.654-64 64z m384-384c-35.346 0-64 28.654-64 64s28.654 64 64 64 64-28.654 64-64-28.654-64-64-64z m320-320c-35.346 0-64 28.654-64 64s28.654 64 64 64 64-28.654 64-64-28.654-64-64-64z" p-id="21405"></path></svg>