<?xml version="1.0" standalone="no"?><!DOCTYPE svg PUBLIC "-//W3C//DTD SVG 1.1//EN" "http://www.w3.org/Graphics/SVG/1.1/DTD/svg11.dtd"><svg t="1634191438799" class="icon" viewBox="0 0 1024 1024" version="1.1" xmlns="http://www.w3.org/2000/svg" p-id="5421" xmlns:xlink="http://www.w3.org/1999/xlink" width="200" height="200"><defs><style type="text/css"></style></defs><path d="M192 640v64h64v-64H192z m0 192h64v-64H192v64z m192 0v-64h-64v64h64z m-128-64h64v-64h-64v64z m128-576h-64v64h64V192z m-128 256h64v-64h-64v64z m512-64h-64v64h64v-64z m-512-128H192v64h64v-64z m192 512h64v-64h-64v64z m320-192h64v-64h-64v64z m-64 128h64v-64h-64v64z m-128-320h64v-64h-64v64zM832 0H192a192 192 0 0 0-192 192v640c0 105.984 85.952 192 192 192h640c106.048 0 192-86.016 192-192V192a192 192 0 0 0-192-192z m64 832c0 35.392-28.608 64-64 64H192c-35.392 0-64-28.608-64-64V192a64 64 0 0 1 64-64h640a64 64 0 0 1 64 64v640z m-576-128h64v-64h-64v64z m256-256h-64v64h64v-64z m0 320h64v-64h-64v64z m-128-320h-64v64h64v-64z" fill="" p-id="5422"></path></svg>