<?xml version="1.0" standalone="no"?><!DOCTYPE svg PUBLIC "-//W3C//DTD SVG 1.1//EN" "http://www.w3.org/Graphics/SVG/1.1/DTD/svg11.dtd"><svg t="1634191278320" class="icon" viewBox="0 0 1024 1024" version="1.1" xmlns="http://www.w3.org/2000/svg" p-id="1784" xmlns:xlink="http://www.w3.org/1999/xlink" width="200" height="200"><defs><style type="text/css"></style></defs><path d="M186 63.9c-66.8 0-121 54.2-121 121s54.2 121 121 121 121-54.2 121-121-54.1-121-121-121z m-0.1 203.5c-45.7 0-82.7-37-82.7-82.7s37-82.7 82.7-82.7 82.7 37 82.7 82.7c0.1 45.7-37 82.7-82.7 82.7zM839.6 717.1c-66.8 0-121 54.2-121 121s54.2 121 121 121 121-54.2 121-121-54.1-121-121-121z m-0.1 203.6c-45.7 0-82.7-37-82.7-82.7s37-82.7 82.7-82.7 82.7 37 82.7 82.7c0.1 45.6-37 82.7-82.7 82.7zM698.9 197.5c-66.8 0-121 54.2-121 121s54.2 121 121 121 121-54.2 121-121-54.2-121-121-121z m-0.1 203.6c-45.7 0-82.7-37-82.7-82.7s37-82.7 82.7-82.7 82.7 37 82.7 82.7-37 82.7-82.7 82.7z" fill="#748696" p-id="1785"></path><path d="M364.3 164.8c-21.6 0-43 1.4-63.9 4.1-4.1 0.5-7.2 4-7.2 8.2v21.7c0 5 4.5 8.9 9.4 8.2 20.8-2.9 42-4.4 63.5-4.4 91.6 0 177 26.8 248.7 72.9 5.5 3.6 12.8-0.4 12.8-6.9v-23.8c0-2.9-1.5-5.6-3.9-7-75.5-46.3-164.3-73-259.4-73zM772.2 377.7v20.9h-29.4c52.5 74.8 83.3 165.8 83.3 264.1 0 26.5-2.3 52.5-6.6 77.8h35.7c4.1-25.6 6.2-51.8 6.2-78.5 0.2-105.7-32.9-203.7-89.2-284.3z" fill="#748696" p-id="1786"></path></svg>