<?xml version="1.0" standalone="no"?><!DOCTYPE svg PUBLIC "-//W3C//DTD SVG 1.1//EN" "http://www.w3.org/Graphics/SVG/1.1/DTD/svg11.dtd"><svg t="1634190847839" class="icon" viewBox="0 0 1024 1024" version="1.1" xmlns="http://www.w3.org/2000/svg" p-id="7577" xmlns:xlink="http://www.w3.org/1999/xlink" width="200" height="200"><defs><style type="text/css"></style></defs><path d="M644 1020h-264c-46.4 0-84-37.6-84-84V88C296 41.6 333.6 4 380 4h264C690.4 4 728 41.6 728 88v848c0 46.4-37.6 84-84 84z m-264-984C351.2 36 328 59.2 328 88v848c0 28.8 23.2 52 52 52h264c28.8 0 52-23.2 52-52V88c0-28.8-23.2-52-52-52h-264z" p-id="7578"></path><path d="M312 292.8h-24.8c-57.6 0-104-44.8-104-100v-54.4c0-8.8 7.2-16 16-16H312c8.8 0 16 7.2 16 16v138.4c0 8.8-7.2 16-16 16zM215.2 154.4v38.4c0 37.6 32 68 72 68H296V154.4H215.2zM736.8 292.8H712c-8.8 0-16-7.2-16-16V138.4c0-8.8 7.2-16 16-16h112.8c8.8 0 16 7.2 16 16v54.4c0 55.2-47.2 100-104 100z m-8.8-32h8.8c40 0 72-30.4 72-68v-38.4H728v106.4zM312 596.8h-24.8c-57.6 0-104-44.8-104-100v-54.4c0-8.8 7.2-16 16-16H312c8.8 0 16 7.2 16 16v138.4c0 8.8-7.2 16-16 16zM215.2 459.2v38.4c0 37.6 32 68 72 68H296V459.2H215.2zM736.8 596.8H712c-8.8 0-16-7.2-16-16V443.2c0-8.8 7.2-16 16-16h112.8c8.8 0 16 7.2 16 16v54.4c0 54.4-47.2 99.2-104 99.2z m-8.8-32h8.8c40 0 72-30.4 72-68v-38.4H728v106.4zM312 901.6h-24.8c-57.6 0-104-44.8-104-100v-54.4c0-8.8 7.2-16 16-16H312c8.8 0 16 7.2 16 16v138.4c0 8.8-7.2 16-16 16zM215.2 763.2v38.4c0 37.6 32 68 72 68H296V763.2H215.2zM736.8 901.6H712c-8.8 0-16-7.2-16-16V747.2c0-8.8 7.2-16 16-16h112.8c8.8 0 16 7.2 16 16v54.4c0 55.2-47.2 100-104 100z m-8.8-32h8.8c40 0 72-30.4 72-68v-38.4H728v106.4zM512 620.8c-60 0-108.8-48.8-108.8-108.8S452 403.2 512 403.2 620.8 452 620.8 512 572 620.8 512 620.8z m0-201.6c-51.2 0-92.8 41.6-92.8 92.8 0 51.2 41.6 92.8 92.8 92.8 51.2 0 92.8-41.6 92.8-92.8 0-51.2-41.6-92.8-92.8-92.8zM512 316.8c-60 0-108.8-48.8-108.8-108.8S452 99.2 512 99.2 620.8 148 620.8 208 572 316.8 512 316.8z m0-201.6c-51.2 0-92.8 41.6-92.8 92.8 0 51.2 41.6 92.8 92.8 92.8 51.2 0 92.8-41.6 92.8-92.8 0-51.2-41.6-92.8-92.8-92.8zM512 924.8c-60 0-108.8-48.8-108.8-108.8S452 707.2 512 707.2s108.8 48.8 108.8 108.8-48.8 108.8-108.8 108.8z m0-201.6c-51.2 0-92.8 41.6-92.8 92.8 0 51.2 41.6 92.8 92.8 92.8 51.2 0 92.8-41.6 92.8-92.8 0-51.2-41.6-92.8-92.8-92.8z" p-id="7579"></path></svg>