<?xml version="1.0" standalone="no"?><!DOCTYPE svg PUBLIC "-//W3C//DTD SVG 1.1//EN" "http://www.w3.org/Graphics/SVG/1.1/DTD/svg11.dtd"><svg t="1634190235911" class="icon" viewBox="0 0 1027 1024" version="1.1" xmlns="http://www.w3.org/2000/svg" p-id="2862" xmlns:xlink="http://www.w3.org/1999/xlink" width="200.5859375" height="200"><defs><style type="text/css"></style></defs><path d="M696.371069 1023.986564a100.341653 100.341653 0 0 1-34.116162-6.020499h-2.006833L362.233366 895.549249a20.068331 20.068331 0 0 0-12.040999 0h-2.006833l-219.748219 59.201575a98.334819 98.334819 0 0 1-86.293821-13.044415 96.327986 96.327986 0 0 1-42.143494-77.263072V249.349007a40.136661 40.136661 0 0 1 80.273322 0v612.08408a17.058081 17.058081 0 0 0 7.023916 13.044415 19.064914 19.064914 0 0 0 17.058081 3.01025h2.006833l219.748219-58.198159a101.345069 101.345069 0 0 1 64.218657 1.003417h2.006833l297.011292 122.416816a20.068331 20.068331 0 0 0 12.040998 0l195.666223-55.187909 32.109329-7.023916a20.068331 20.068331 0 0 0 17.058081-20.06833V239.314841a17.058081 17.058081 0 0 0-7.023916-14.047831 19.064914 19.064914 0 0 0-17.058081-3.01025l-198.676472 55.187909a40.176798 40.176798 0 1 1-22.075164-77.263072l199.679889-56.191326a99.338236 99.338236 0 0 1 85.290405 16.054665 97.331403 97.331403 0 0 1 40.136661 75.256239v626.131912a100.341653 100.341653 0 0 1-86.293822 99.338236l-22.075163 5.017083-195.666223 55.187909a100.341653 100.341653 0 0 1-26.088829 3.010249z" fill="" p-id="2863"></path><path d="M361.229949 593.520875a72.24599 72.24599 0 0 1-50.170826-20.068331C181.618391 448.025479 116.396317 337.649661 116.396317 245.33534a245.33534 245.33534 0 1 1 490.670681 0c0 59.201575-26.08883 125.427066-79.269906 197.673056-39.133244 54.184492-84.286988 100.341653-115.3929 130.444148a72.24599 72.24599 0 0 1-51.174243 20.068331z m0-512.745845c-91.310904 0-164.56031 74.252823-164.56031 164.56031 0 40.136661 22.075164 92.31432 63.215241 149.509063 26.08883 36.122995 59.201575 74.252823 101.345069 115.3929 109.372401-106.362152 164.56031-195.666222 164.56031-264.901963 0-90.307487-74.252823-164.56031-164.56031-164.56031z" fill="" p-id="2864"></path><path d="M361.229949 386.817071c-77.263072 0-140.478314-63.215241-140.478313-140.478314s63.215241-140.478314 140.478313-140.478314 140.478314 63.215241 140.478314 140.478314-63.215241 140.478314-140.478314 140.478314z m0-200.683306a60.204992 60.204992 0 1 0 60.204992 60.204992 60.204992 60.204992 0 0 0-60.204992-60.204992zM702.391568 786.176848a40.136661 40.136661 0 0 1-15.051248-3.01025l-210.71747-88.300654a40.252054 40.252054 0 1 1 31.105912-74.252823l195.666222 82.280155 259.88488-85.290405a40.139671 40.139671 0 1 1 25.085414 76.259656l-272.929295 90.307488zM702.391568 534.3193a40.136661 40.136661 0 0 1-15.051248-3.01025l-109.372401-46.15716a40.252054 40.252054 0 1 1 31.105912-74.252823l95.32457 40.136661 259.88488-85.290404a40.139671 40.139671 0 1 1 25.085413 76.259655l-273.932711 90.307488zM58.198158 753.064102a40.136661 40.136661 0 0 1-14.047831-77.263072l189.645723-70.239157a40.164757 40.164757 0 1 1 28.095663 75.25624L72.24599 750.053853zM58.198158 542.346632a40.136661 40.136661 0 0 1-14.047831-77.263072l76.259656-28.095663a40.164757 40.164757 0 0 1 28.095663 75.256239l-76.259656 27.092246z" fill="" p-id="2865"></path><path d="M706.405234 1001.911401a40.136661 40.136661 0 0 1-40.136661-40.136661V242.325091a40.136661 40.136661 0 0 1 80.273322 0v719.449649a40.136661 40.136661 0 0 1-40.136661 40.136661zM360.226533 890.532166a40.136661 40.136661 0 0 1-40.136661-40.136661V702.893276a40.136661 40.136661 0 0 1 80.273322 0v147.502229a40.136661 40.136661 0 0 1-40.136661 40.136661z" fill="" p-id="2866"></path></svg>