<?xml version="1.0" standalone="no"?><!DOCTYPE svg PUBLIC "-//W3C//DTD SVG 1.1//EN" "http://www.w3.org/Graphics/SVG/1.1/DTD/svg11.dtd"><svg t="1634190788033" class="icon" viewBox="0 0 1024 1024" version="1.1" xmlns="http://www.w3.org/2000/svg" p-id="7441" xmlns:xlink="http://www.w3.org/1999/xlink" width="200" height="200"><defs><style type="text/css"></style></defs><path d="M210.94 825h65.59l-41.76 40.78a28 28 0 1 0 39.12 40.06l91-88.81a28 28 0 0 0 0-40.09l-90.95-88.56a28 28 0 1 0-39.07 40.12l41.6 40.5h-65.46a43 43 0 0 1-42.94-42.94V619.88a28 28 0 1 0-56 0v106.18A99.06 99.06 0 0 0 210.94 825zM813.06 249h-65.59l41.76-40.78a28 28 0 0 0-39.12-40.06l-91 88.81a28 28 0 0 0 0 40.09l90.95 88.56a28 28 0 1 0 39.07-40.12l-41.6-40.5h65.46a43 43 0 0 1 42.94 42.94v106.18a28 28 0 1 0 56 0V347.94A99.06 99.06 0 0 0 813.06 249zM535.58 511.58h-440a32 32 0 0 1-32-32v-336a32 32 0 0 1 32-32h440a32 32 0 0 1 32 32v336a32 32 0 0 1-32 32z m-416-56h392v-288h-392z" p-id="7442"></path><path d="M374 297.72l-101-58.28a16 16 0 0 0-24 13.85v116.57a16 16 0 0 0 24 13.86l101-58.29a16 16 0 0 0 0-27.71zM942.17 560.71a43.61 43.61 0 0 0-40.38-4.66l-112.64 46.13L647.53 548l-0.73-0.27a43.76 43.76 0 0 0-31.32 0.86l-1.55 0.64L507.75 609A40.83 40.83 0 0 0 484 645.81v274a40.63 40.63 0 0 0 17.93 33.48 43.61 43.61 0 0 0 40.52 4.5l1.62-0.64 96.23-52.37 130.12 53.3 0.74 0.29a43.77 43.77 0 0 0 30.94 0l131.24-52.4c16.21-6.25 26.66-21.16 26.66-38.06V594.13a40.67 40.67 0 0 0-17.83-33.42zM904 857.44L815 893V737a28 28 0 0 0-56 0v155.94l-102.63-42-0.73-0.29a45.79 45.79 0 0 0-34.3 0.9l-1.09 0.48L540 895.67V655.14l66-37.19V763a28 28 0 0 0 56 0V613.48l112 42.88 0.72 0.26a43.89 43.89 0 0 0 30.31-0.44l98.94-40.52z" p-id="7443"></path></svg>