<?xml version="1.0" standalone="no"?><!DOCTYPE svg PUBLIC "-//W3C//DTD SVG 1.1//EN" "http://www.w3.org/Graphics/SVG/1.1/DTD/svg11.dtd"><svg t="1634190929604" class="icon" viewBox="0 0 1024 1024" version="1.1" xmlns="http://www.w3.org/2000/svg" p-id="9117" xmlns:xlink="http://www.w3.org/1999/xlink" width="200" height="200"><defs><style type="text/css"></style></defs><path d="M855.8 478.8c-4 0.1-8 0.4-12 1l-104.9-168c8.5-11.6 13.1-25.7 13-40.2 0.4-38-30.1-69-68.1-69.4-19.6-0.2-38.3 8-51.4 22.4l-156.6-58.4c-0.4-38.2-31.7-68.8-69.9-68.4-38.2 0.4-68.8 31.7-68.4 69.9 0 14 4.4 27.7 12.5 39.1L213.9 411c-4.6-0.9-9.4-1.2-14.1-1-38 0-68.9 30.9-68.8 68.9 0 25.6 14.3 49.1 37 61L145 793c-29 8.6-49 35.4-49 65.7 0.2 38.2 31.2 69 69.4 68.9 28.1 0.1 53.4-17.1 63.7-43.3H550c14 35.4 54 52.8 89.4 38.9 35.4-14 52.8-54 38.9-89.4-1.3-3.3-2.8-6.4-4.6-9.5L837 614c6.1 1.8 12.4 2.9 18.8 3.1 38.2 0 69.2-31 69.2-69.2 0-38.1-31-69.1-69.2-69.1zM614.2 789.3c-28.2 0.2-53.5 17.2-64.2 43.3H229.1c-6.2-15.2-17.7-27.6-32.4-35l23-253.1c28.9-8.9 48.7-35.5 49.1-65.8 0.1-14-4.1-27.6-12-39.1L393 235.5c4.6 1 9.4 1.6 14.1 1.6 19.3-0.1 37.6-8.3 50.6-22.4l156.6 58.4c0.8 37.4 31.4 67.4 68.9 67.3 4-0.1 8-0.4 12-1l104.9 168c-8.5 11.6-13.1 25.7-13 40.2-0.2 12.1 3.1 24.1 9.4 34.4l-164 210.4c-6-1.8-12.1-2.9-18.3-3.1z" fill="#999999" p-id="9118"></path></svg>