<?xml version="1.0" standalone="no"?><!DOCTYPE svg PUBLIC "-//W3C//DTD SVG 1.1//EN" "http://www.w3.org/Graphics/SVG/1.1/DTD/svg11.dtd"><svg t="1634703374206" class="icon" viewBox="0 0 1024 1024" version="1.1" xmlns="http://www.w3.org/2000/svg" p-id="2447" xmlns:xlink="http://www.w3.org/1999/xlink" width="200" height="200"><defs><style type="text/css"></style></defs><path d="M511.999787 1023.997867a508.627426 508.627426 0 0 1-362.025309-149.972771A508.712759 508.712759 0 0 1 0.001707 511.999787a508.627426 508.627426 0 0 1 149.972771-362.025309A508.627426 508.627426 0 0 1 511.999787 0.001707h0.597331a508.243427 508.243427 0 0 1 361.64131 149.802105 508.755426 508.755426 0 0 1 110.932918 166.186043A509.267424 509.267424 0 0 1 1023.997867 511.999787a508.712759 508.712759 0 0 1-149.972771 362.067975A508.670092 508.670092 0 0 1 511.999787 1023.997867zM435.797406 298.667253A55.466459 55.466459 0 0 0 384.000267 356.992368v309.972171A55.466459 55.466459 0 0 0 435.797406 725.33232a49.151816 49.151816 0 0 0 25.941236-7.509305l238.463106-155.47675A61.055771 61.055771 0 0 0 725.33232 511.999787a61.098438 61.098438 0 0 0-25.173239-50.303812l-238.463106-155.47675A48.98115 48.98115 0 0 0 435.797406 298.667253z" p-id="2448"></path></svg>