<?xml version="1.0" standalone="no"?><!DOCTYPE svg PUBLIC "-//W3C//DTD SVG 1.1//EN" "http://www.w3.org/Graphics/SVG/1.1/DTD/svg11.dtd"><svg t="1634191593196" class="icon" viewBox="0 0 1024 1024" version="1.1" xmlns="http://www.w3.org/2000/svg" p-id="7962" xmlns:xlink="http://www.w3.org/1999/xlink" width="200" height="200"><defs><style type="text/css"></style></defs><path d="M320 464.16c46.976 3.328 86.784 18.368 118.944 45.216 17.92 14.944 64.32 11.104 93.632-9.376 29.024-20.32 32.128-48.32-1.088-84.128a48 48 0 1 1 30.272-13.76c38.496 47.552 32.192 94.016-10.88 124.096-40 28-102.016 33.152-132.448 7.744-28.864-24.096-65.44-36.928-110.304-38.336A48 48 0 1 1 320 464v0.16z m160 368.128h96v96h-96v-96z m0-127.904h96v96h-96v-96z m0-128.768h96v96h-96v-96z m128 256.64h96v96h-96v-96z m0-127.872h96v96h-96v-96z m128 127.904h96v96h-96v-96zM832 256a32 32 0 0 1 32 32v160h-32V288H320a16 16 0 0 1 0-32h96V192H128v672h288v32H128a32 32 0 0 1-32-32V192a32 32 0 0 1 32-32h288a32 32 0 0 1 32 32v64h384z" p-id="7963"></path><path d="M832 513.472h96v96h-96v-96z m-29.44 148.832l67.904 67.904-67.872 67.84-67.904-67.84 67.904-67.904z m-126.144-126.432l67.872 67.84-67.872 67.904-67.872-67.872 67.872-67.872z" p-id="7964"></path></svg>